<svg xmlns="http://www.w3.org/2000/svg" viewBox="0 0 32 32" shape-rendering="crispEdges">
  <rect width="32" height="32" fill="none"/>
  <rect x="11" y="3" width="10" height="2" fill="#b7bcc8"/>
  <rect x="9" y="5" width="14" height="2" fill="#c8ceda"/>
  <rect x="8" y="7" width="16" height="3" fill="#d6dde7"/>
  <rect x="8" y="10" width="3" height="2" fill="#9aa3b1"/>
  <rect x="21" y="10" width="3" height="2" fill="#9aa3b1"/>
  <rect x="10" y="10" width="12" height="10" fill="#ffd7b3"/>
  <rect x="12" y="13" width="2" height="2" fill="#2f2a29"/>
  <rect x="18" y="13" width="2" height="2" fill="#2f2a29"/>
  <rect x="13" y="17" width="6" height="1" fill="#b85b66"/>
  <rect x="12" y="20" width="8" height="2" fill="#5d3d8c"/>
  <rect x="10" y="22" width="12" height="4" fill="#7a5ab8"/>
  <rect x="8" y="24" width="4" height="5" fill="#ffffff"/>
  <rect x="20" y="24" width="4" height="5" fill="#ffffff"/>
  <rect x="12" y="26" width="8" height="3" fill="#312f52"/>
  <rect x="11" y="29" width="4" height="3" fill="#202020"/>
  <rect x="17" y="29" width="4" height="3" fill="#202020"/>
  <rect x="7" y="23" width="2" height="3" fill="#ffd7b3"/>
  <rect x="23" y="23" width="2" height="3" fill="#ffd7b3"/>
</svg>
